<svg width="145" height="120" viewBox="0 0 145 120" fill="none" xmlns="http://www.w3.org/2000/svg">
<path d="M144.48 80.6729V80.7354C144.495 84.896 143.193 88.8496 140.706 92.1663C140.695 92.1781 140.683 92.1937 140.671 92.2093C138.348 95.2057 135.312 97.077 131.968 97.6161C130.498 102.464 127.789 107.066 124.172 110.801C120.227 114.872 115.055 117.681 109.22 118.923C106.76 119.447 104.289 119.712 101.88 119.712C100.235 119.712 98.5633 119.591 96.9106 119.349C88.3549 118.091 82.1457 114.083 78.4506 107.434C75.2895 101.742 73.8044 94.5885 73.9135 85.5601C73.9135 85.5328 73.9135 85.5055 73.9174 85.4742C74.046 81.923 74.3579 78.5672 74.7827 74.6214L75.27 70.1131C75.2076 70.078 75.1491 70.0389 75.0907 70.0038C75.0127 72.2345 74.4124 74.4456 73.2743 76.4771L71.2318 80.1181C70.1677 82.0129 70.234 84.4272 71.376 85.5015C72.5025 86.5564 73.0014 88.0018 72.7091 89.3692C72.3271 91.1467 70.7329 92.389 68.8347 92.389C66.9364 92.389 64.7848 91.1701 63.2959 89.3379C62.1187 91.0529 60.8091 92.6156 59.3747 94.022C55.1377 98.1709 49.8172 100.363 43.9822 100.363C41.2966 100.363 38.572 99.8898 35.8864 98.9601C29.7201 96.8309 24.041 92.3734 19.7105 86.4509C19.5078 86.7204 19.2857 86.9822 19.0518 87.2322C17.6018 88.7753 15.6685 89.627 13.6143 89.627C11.6927 89.627 9.85295 88.8691 8.43804 87.494C8.40686 87.4627 8.37568 87.4275 8.3406 87.3963C5.56925 84.4819 4.68445 79.9033 5.86938 75.5669C4.62598 74.348 3.57747 72.9025 2.73554 71.2383C1.18811 68.1637 0.548868 64.9876 0.841204 61.8036C0.841204 61.788 0.845102 61.7763 0.845102 61.7607C1.0205 60.0534 1.44926 58.5338 2.14697 57.1664C1.30504 54.2247 0.891876 51.2791 0.895774 48.2123V48.1732C0.942548 43.9423 1.95988 39.8169 3.86981 36.0391C2.17815 35.0038 0.852898 33.4177 0.186372 31.4761C0.0109702 30.9643 -0.0397016 30.4018 0.0304591 29.8666C0.221452 28.3742 0.926956 27.5343 1.62077 27.0616C0.852898 25.0223 0.587847 22.6353 0.899672 20.0217C1.70652 13.2749 5.46401 7.20391 11.2172 3.36365C13.6416 1.74238 16.0193 0.742269 18.4788 0.312534C19.4065 0.148454 20.3381 0.0664135 21.2541 0.0664135C22.8989 0.0664135 24.5009 0.332068 26.0094 0.851656C26.0834 0.800869 26.1614 0.753989 26.2394 0.711015L26.6993 0.457081C27.1553 0.203147 27.6582 0.0546935 28.1766 0.0195334C28.391 0.00781336 28.6092 0 28.8275 0C31.5638 0 34.2104 1.15638 36.2762 3.25426C36.2801 3.26208 36.2879 3.26598 36.2957 3.2738C39.4374 6.50852 40.4703 11.1379 39.3477 15.3025C43.2104 15.4509 46.89 16.1971 50.3084 17.5254C56.4864 19.9201 61.1092 23.8893 63.4323 28.761C67.0183 31.8082 69.4466 36.1329 70.3509 40.856C72.6155 39.016 75.422 37.6018 78.7546 36.6407C78.7663 36.6368 78.778 36.6329 78.7897 36.6329C81.8066 35.7969 84.7494 35.3945 87.7897 35.3945C90.105 35.3945 92.5334 35.6328 95.1761 36.1211C99.8652 33.2849 105.279 31.7925 110.927 31.7925C111.114 31.7925 111.301 31.7964 111.488 31.7964C112.054 31.0659 112.818 30.4526 113.749 30.0189C113.835 29.9798 113.921 29.9447 114.01 29.9095C115.121 29.4993 116.294 29.2884 117.499 29.2884C119.857 29.2884 122.102 30.097 123.821 31.566C125.174 32.7223 125.922 34.3163 126.012 35.9492C129.391 38.0276 132.275 40.4341 134.606 43.1336C137.775 46.7981 139.942 51.0134 141.057 55.6623C142.484 61.6357 141.658 66.8784 140.328 71.3867C142.846 73.4416 144.398 76.7936 144.48 80.6729Z" fill="white"/>
<path d="M97.4173 115.868C90.6274 114.872 84.9132 111.836 81.5143 105.723C78.1154 99.6086 77.3358 92.4828 77.4216 85.607C77.5541 82.0129 77.8854 78.5633 78.2713 75.0004L79.008 68.1559C74.3384 65.8197 69.7818 61.9482 68.1876 56.85C67.1703 53.627 67.5679 50.2711 69.2829 47.3724C71.5865 43.4735 75.4298 41.2584 79.7252 40.02C85.2718 38.4886 90.2415 38.6488 95.8777 39.8442C101.14 36.2813 107.552 34.7968 113.862 35.4609C113.749 34.41 114.303 33.6404 115.234 33.2068C117.323 32.4293 119.838 32.7809 121.549 34.242C122.613 35.1523 122.851 36.5978 122.055 37.7229C129.722 41.8405 135.6 47.9193 137.647 56.4827C139.042 62.3232 138.052 67.48 136.107 73.0236C139.389 74.055 140.901 77.4538 140.972 80.751C140.983 84.1147 139.915 87.3728 137.9 90.0528C135.776 92.7914 132.735 94.5064 129.208 94.2291C128.136 99.4796 125.361 104.523 121.65 108.352C117.939 112.18 113.496 114.419 108.487 115.485C104.788 116.274 101.148 116.419 97.4135 115.868H97.4173ZM119.272 53.541C120.516 48.9976 121.147 44.5205 120.555 39.8676C113.776 36.629 105.56 37.2267 98.9375 40.7037C105.595 42.8172 111.617 46.2355 116.704 50.9314L119.272 53.5371V53.541ZM128.845 67.2066C130.514 68.8278 132.123 70.2968 134.061 71.6563C135.023 68.9021 135.717 66.1635 135.877 63.2413C136.173 57.8735 134.489 52.7011 131.258 48.4115C129.036 45.462 126.195 43.1024 123.057 41.1842C123.396 46.2043 122.519 50.9587 121.108 55.7639C123.088 58.358 124.706 61.1629 125.926 64.1945L128.842 67.2027L128.845 67.2066ZM87.3181 53.8965C92.6191 51.2595 98.4737 50.9275 104.211 51.9862C110.327 53.1933 115.897 55.8108 120.886 59.7214C119.12 56.7054 116.809 54.2794 114.275 52.0018C111.231 49.3609 107.906 47.2513 104.278 45.4933C100.387 43.579 96.3338 42.2898 92.0423 41.6999C86.6321 40.9576 80.4852 41.5436 75.765 44.333C74.1045 45.3136 72.7091 46.5324 71.645 48.1225C69.9962 50.5837 69.5753 53.5605 70.5263 56.3695C71.9023 60.4441 75.5311 63.4991 79.2185 65.5267C79.959 60.1589 82.4848 56.4124 87.322 53.8965H87.3181ZM127.154 92.9828C127.317 92.1742 128.062 91.6702 128.873 91.7757C135.098 92.5844 138.968 85.9782 138.633 80.2119C138.57 79.1415 138.259 78.1765 137.744 77.2936C136.462 75.0785 133.761 74.5043 131.597 75.8521C130.284 76.6686 129.403 77.9421 128.908 79.4384C128.171 81.6574 126.861 85.65 124.519 84.7749C123.388 84.353 123.311 82.9192 123.33 81.591C123.353 79.9814 123.268 78.4539 123.045 76.8717C122.702 75.5083 122.246 74.2738 121.588 73.0236C119.869 69.7733 119.436 66.0502 120.278 62.4482C113.309 56.4788 103.989 52.998 94.8409 54.1505C90.1557 54.756 85.0847 56.9164 82.9058 61.2372C82.0249 62.9835 81.6546 64.8274 81.4363 66.8159C83.545 65.0032 87.0297 64.0891 89.688 64.6829C90.2532 64.8079 90.8534 65.0735 91.1302 65.5384C91.4069 66.0033 91.4147 66.562 91.1185 67.0034C90.9197 67.3003 90.3896 67.5699 89.9102 67.4761C87.3259 66.98 84.7689 67.5113 82.594 68.9724C82.1535 69.2693 81.6546 69.2888 81.1869 68.9372L80.1734 79.0633C79.5264 85.5367 79.4094 92.1742 81.105 98.4444C81.7754 100.925 82.6563 103.226 84.0478 105.383C85.8369 108.152 88.2809 110.328 91.3485 111.618C96.7469 113.887 102.738 114.305 108.448 113.024C118.407 110.793 125.17 102.796 127.162 92.9828H127.154Z" fill="#1E1E1E"/>
<path d="M96.7664 102.839C93.1765 101.956 90.5611 98.4327 90.0232 94.7955C89.9413 94.2486 90.1323 93.6704 90.4403 93.3188C90.7989 92.9125 91.3796 92.7563 91.9838 92.8188C95.9323 93.2251 99.8067 93.0219 103.673 92.1663L106.519 91.5374C107.057 91.4202 107.626 91.5842 108.023 91.9359C108.401 92.2679 108.569 92.8149 108.569 93.4165C108.561 95.2331 107.953 96.8583 107.037 98.4092C104.936 101.976 100.805 103.832 96.7625 102.835L96.7664 102.839ZM105.529 96.4559C105.946 95.6706 106.152 94.8971 106.265 93.9556L101.697 94.9088C98.5906 95.4206 95.5737 95.4519 92.3853 95.1315C92.5568 95.8894 92.8023 96.5809 93.2194 97.2372C96.9496 98.6319 101.861 98.0732 105.525 96.4598L105.529 96.4559Z" fill="#1E1E1E"/>
<path d="M96.9379 89.166C95.753 89.4707 94.6538 89.8028 93.465 89.7364C92.1553 89.6622 90.8885 89.0801 90.2337 87.9276C89.5477 86.7087 89.7075 85.2281 90.3974 84.0326C91.442 82.2238 93.1025 81.9504 93.3831 80.4776C93.6793 78.911 93.8119 77.3561 93.9405 75.7466L94.3264 71C94.3809 70.3241 95.1098 69.9608 95.6243 70.0467C96.3493 70.1678 96.5793 70.7812 96.5208 71.4648L95.8348 79.8173C95.6438 82.1691 94.7434 82.888 93.2662 84.1498C92.3853 84.9038 91.8201 85.9196 92.3268 86.7907C92.9388 87.8416 95.028 87.3807 96.4273 86.9665C97.0743 86.7712 97.7604 87.1228 97.9124 87.6463C98.1384 88.4237 97.698 88.9707 96.934 89.166H96.9379Z" fill="#1E1E1E"/>
<path d="M109.543 74.098C111.578 76.7037 110.682 82.5833 107.482 82.7395C106.546 82.7864 105.692 82.2668 105.178 81.4347C103.287 78.3953 104.535 72.9806 107.493 73.0275C108.277 73.0392 109.025 73.4338 109.543 74.1019V74.098ZM109.185 77.2194C109.59 76.4849 109.489 75.6802 109.017 75.0629C108.881 74.8793 108.507 74.6957 108.312 74.7113C108.14 74.723 107.801 74.9184 107.704 75.0707C107.275 75.7583 107.283 76.6139 107.747 77.2624C107.902 77.4811 108.288 77.6882 108.511 77.6726C108.702 77.6608 109.072 77.4304 109.185 77.2194Z" fill="#1E1E1E"/>
<path d="M88.7993 81.8996C87.704 82.5754 86.4489 82.1262 85.798 81.0987C84.5546 79.1454 84.652 75.7856 86.0474 74.0511C86.5541 73.4221 87.3025 73.051 88.0782 73.1408C90.5806 73.4338 91.2627 77.4577 90.1635 80.2119C89.8907 80.8917 89.4463 81.5011 88.8032 81.8996H88.7993ZM89.4268 77.0358C89.8283 76.3052 89.6373 75.4614 89.1306 74.9184C88.7915 74.555 88.238 74.6683 87.9885 75.0824C87.6104 75.7153 87.6026 76.5201 88.0509 77.1491C88.1873 77.3405 88.5927 77.5163 88.811 77.4968C88.9903 77.4811 89.306 77.2624 89.4268 77.0358Z" fill="#1E1E1E"/>
<path d="M112.12 68.6833C109.119 66.9175 105.747 66.437 102.407 67.1206C101.798 67.2456 101.159 66.8042 100.98 66.4135C100.703 65.8197 100.847 65.1126 101.397 64.7297C101.845 64.4172 102.426 64.2375 103.003 64.1437C109.372 63.1046 115.262 66.8081 113.449 68.6091C113.126 68.9294 112.592 68.9646 112.12 68.6872V68.6833Z" fill="#1E1E1E"/>
<path d="M133.484 84.1108C133.554 86.0563 132.848 87.9198 131.578 87.451C131.118 87.283 130.88 86.7322 131.059 86.193C131.324 85.4117 131.469 84.6108 131.43 83.767C131.348 81.966 132.213 79.8291 133.679 79.4228C134.217 79.2743 134.723 79.5868 134.887 79.9658C135.133 80.5401 134.887 80.962 134.454 81.3448C133.69 82.0168 133.449 83.095 133.484 84.1108Z" fill="#1E1E1E"/>
<path d="M112.213 95.9402C112.802 95.5456 112.911 98.1904 112.42 98.0068C111.851 97.7959 111.738 96.2566 112.213 95.9402Z" fill="#1E1E1E"/>
<path d="M123.751 96.0808C123.392 96.8309 122.706 94.3228 123.443 94.108C123.806 94.0025 124.145 95.2643 123.751 96.0808Z" fill="#1E1E1E"/>
<path d="M117.53 95.069C117.335 95.151 117.023 95.1237 116.98 95.0026C116.704 94.2252 116.708 93.3344 117.14 93.186C117.526 93.0532 117.729 94.0298 117.534 95.069H117.53Z" fill="#1E1E1E"/>
<path d="M82.1769 92.35C82.516 92.2562 82.8473 93.6548 82.2237 94.44C81.5649 94.1275 81.6507 92.4945 82.1769 92.35Z" fill="#1E1E1E"/>
<path d="M113.492 106.793C113.858 106.363 114.634 108.254 113.699 108.738C113.332 108.25 113.028 107.336 113.492 106.793Z" fill="#1E1E1E"/>
<path d="M107.392 107.555C107.992 107.469 108.031 109.688 107.497 109.551C107.014 109.426 106.838 107.637 107.392 107.555Z" fill="#1E1E1E"/>
<path d="M86.2852 96.6317C86.7217 96.7997 86.7646 98.3506 86.293 98.5928C85.7434 98.8702 85.6226 96.3738 86.2852 96.6317Z" fill="#1E1E1E"/>
<path d="M119.978 98.2373C120.457 98.4913 120.625 99.8508 120.021 100.316C119.292 99.4796 119.635 98.0537 119.978 98.2373Z" fill="#1E1E1E"/>
<path d="M121.132 89.2598C121.65 89.2754 121.759 90.9474 121.346 91.2561C120.855 91.6233 120.457 89.2402 121.132 89.2598Z" fill="#1E1E1E"/>
<path d="M84.5818 101.613C84.9326 101.429 85.4199 103.039 84.6325 103.672C84.0673 103.207 84.1102 101.859 84.5818 101.613Z" fill="#1E1E1E"/>
<path d="M115.694 101.031C116.103 101.898 115.835 102.859 115.515 102.789C115.152 102.707 115.012 101.894 115.133 101.14C115.16 100.96 115.608 100.859 115.694 101.035V101.031Z" fill="#1E1E1E"/>
<path d="M88.9357 102.296C89.3684 102.445 89.5788 103.683 89.0916 104.3C88.2809 103.777 88.5693 102.171 88.9357 102.296Z" fill="#1E1E1E"/>
<path d="M110.467 102.597C110.915 102.781 111.083 104.09 110.533 104.515C109.746 103.816 110.109 102.449 110.467 102.597Z" fill="#1E1E1E"/>
<path d="M94.7162 107.508C95.18 108.047 95.2541 108.926 94.7941 109.5C94.5174 109.844 93.8547 108.106 94.7162 107.508Z" fill="#1E1E1E"/>
<path d="M103.845 110.414C104.379 110.254 104.613 112.204 104.055 112.313C103.556 112.415 103.397 110.547 103.845 110.414Z" fill="#1E1E1E"/>
<path d="M118.243 103.75C118.859 104.281 118.867 105.168 118.395 105.777C117.85 105.359 117.682 104.32 118.243 103.75Z" fill="#1E1E1E"/>
<path d="M99.0077 110.192C99.5261 110.235 99.6859 111.801 99.0388 112.067C98.6296 111.59 98.4152 110.637 99.0077 110.192Z" fill="#1E1E1E"/>
<path d="M87.4 107.977C86.7295 107.586 86.6945 106.504 87.2752 105.98C87.7001 106.508 87.8326 107.297 87.4 107.977Z" fill="#1E1E1E"/>
<path d="M82.8668 97.7177C83.2488 97.5888 83.4593 99.3038 82.8512 99.5343C82.4575 99.6828 82.2354 97.9326 82.8668 97.7177Z" fill="#1E1E1E"/>
<path d="M91.1263 108.516C91.4771 108.84 91.6174 109.926 91.1731 110.418C90.2376 109.903 90.8145 108.227 91.1263 108.516Z" fill="#1E1E1E"/>
<path d="M125.458 91.0764C124.893 90.5919 124.889 89.6817 125.345 89.123C125.906 89.541 125.988 90.463 125.458 91.0764Z" fill="#1E1E1E"/>
<path d="M37.0285 95.6394C28.3598 92.643 21.6711 84.9038 18.1319 76.606C18.6503 79.5712 18.5412 82.6458 16.4948 84.8218C14.9474 86.4704 12.5152 86.5564 10.8781 84.9663C8.31331 82.2746 8.38737 77.739 10.04 74.43C8.20417 73.2229 6.84773 71.5899 5.86548 69.6483C4.68055 67.2925 4.09198 64.7571 4.32975 62.1162C4.50125 60.4558 4.98068 58.9674 5.96683 57.6313C4.91832 54.5568 4.39211 51.4744 4.39601 48.2084C4.45448 43.0321 6.16951 38.1448 9.2215 34.0076L9.30336 33.7615C9.31505 33.7263 9.2332 33.7615 9.13965 33.785C6.66843 34.0506 4.30246 32.6794 3.49951 30.3275C3.519 30.1908 3.54629 29.9525 3.63204 29.9369L3.94776 29.8744C5.69008 31.5347 8.3289 31.8043 10.4103 30.4526C5.49519 29.4251 3.81523 25.1473 4.37652 20.4358C5.07033 14.6188 8.30162 9.52839 13.1544 6.28584C14.9864 5.06305 16.9002 4.1528 19.0791 3.76994C21.8699 3.2777 24.6724 3.71134 27.0579 5.23104C29.4044 6.72339 30.7413 9.10256 31.2675 11.9115C32.4447 8.9502 30.944 5.54358 28.0713 4.22703C27.9856 4.12155 27.8375 3.83636 27.9349 3.78166L28.3948 3.52773C30.4529 3.3949 32.316 4.24265 33.7699 5.72328C37.0012 9.05177 37.1104 14.4235 34.0701 17.9317L31.5638 17.959C25.9041 18.5098 20.5914 21.1 16.5494 25.0379C15.8322 25.9872 14.9786 26.6709 14.7993 27.9679C19.7651 23.0221 26.1224 20.0217 33.0449 19.1115C38.4629 18.4005 43.9354 18.8263 49.0338 20.8031C53.9255 22.7017 58.5367 26.0536 60.5635 30.9643C65.1902 34.5233 67.6264 40.5552 67.1859 46.3566L66.5467 50.4704C66.3284 51.8807 66.0049 53.2324 65.9971 54.6779C65.9815 56.8539 66.7065 58.8385 67.8875 60.6395L69.9962 63.8507C72.0114 67.2495 72.1478 71.3008 70.2106 74.7543L68.1681 78.3953C66.4609 81.4347 66.4336 85.6852 68.975 88.0682C69.1387 88.2206 69.3063 88.4706 69.2712 88.6269C69.1309 89.2871 66.9053 88.6269 65.6229 86.5759C64.1261 84.185 63.9429 81.2511 64.8628 78.5711C65.3734 77.0787 66.1257 75.7778 66.8663 74.391C68.8503 70.6874 68.6359 66.855 65.7125 63.6554C66.6909 69.0427 66.1959 74.4144 64.3444 79.536C62.7229 84.0131 60.3569 88.1346 56.9152 91.5061C51.4504 96.8583 44.1108 98.0889 37.0207 95.6355L37.0285 95.6394ZM26.329 13.6343C27.1242 10.6301 24.6413 7.72741 21.6984 7.27423C20.6928 7.12187 19.6715 7.1961 18.8023 7.84461C22.6417 7.75866 25.0544 10.13 26.329 13.6343ZM13.5559 72.1524C13.7508 71.8868 14.2497 71.7188 14.6356 71.7774C15.536 71.9102 16.1284 72.5783 16.6001 73.344C16.8261 73.3948 17.1886 73.3674 17.4927 73.2776C18.1787 73.0744 19.2389 73.1525 19.5429 73.9612C21.2852 78.5789 23.7915 82.7981 27.2333 86.3532C31.8483 91.1194 37.9601 94.6549 44.7345 94.3502C49.8016 94.1236 53.6722 91.9202 56.8996 88.0721C61.0274 83.1458 63.4674 77.0123 63.865 70.578C63.9819 68.7028 63.9234 66.9526 63.6194 65.136L62.68 59.5143C62.3877 57.768 62.1694 56.0921 62.2747 54.3106C62.4306 51.6463 62.3331 49.0601 61.7056 46.4699C59.706 38.2386 52.6432 32.82 44.2317 32.7653C42.0333 32.7497 39.9597 32.109 38.1979 30.8315C37.9835 34.9413 35.5512 38.6058 32.3044 40.985L28.7496 43.5048C26.216 45.3018 24.9258 48.2123 25.0038 51.3298C25.2805 55.2873 24.6062 58.5689 21.2813 60.7801C20.1666 63.2374 20.0652 65.8822 21.3593 68.2067L21.2813 68.6989C21.2424 68.9529 20.2913 68.9294 19.4883 67.9332C17.4927 65.4603 17.4108 63.0968 16.1791 60.8309C15.4229 59.4401 14.3081 58.3111 12.8543 57.729C10.9911 56.9828 9.00322 57.5375 7.8066 59.1549C5.37826 62.4443 6.95298 68.0426 9.68534 71.0312C10.7455 72.1055 11.8954 72.9924 13.4623 73.3049C13.3493 72.8947 13.3298 72.4728 13.5559 72.1602V72.1524ZM22.018 51.2205C21.5698 54.0762 20.2952 56.389 18.3463 58.4869C21.6399 57.9087 22.7859 54.2638 22.018 51.2205ZM15.9179 81.0284C16.2921 79.286 16.105 77.485 15.4268 75.8481C14.2497 75.9146 13.2246 75.7817 12.1721 75.4184C11.1275 77.3639 10.9054 79.6181 11.5329 81.716C11.8135 82.4348 12.176 83.1185 12.8231 83.5287C13.4701 83.9389 14.3315 83.7357 14.885 83.1458C15.4385 82.5559 15.7153 81.798 15.9179 81.0245V81.0284Z" fill="#1E1E1E"/>
<path d="M43.0974 83.7045C40.482 82.216 38.6773 79.536 38.2407 76.5396C38.1511 75.9341 38.3343 75.3403 38.7007 75.0004C39.0671 74.6605 39.6089 74.5277 40.1585 74.6254C44.2901 75.3637 48.3711 75.4379 52.5223 74.8207C52.9862 74.7504 53.5708 75.0004 53.8203 75.2817C54.0581 75.5473 54.2374 76.0982 54.1828 76.5162C53.8943 78.7391 52.9901 80.7588 51.4543 82.4309C49.2482 84.8335 45.9038 85.2945 43.1013 83.7006L43.0974 83.7045ZM51.1737 79.1337L51.9182 77.0631C48.1529 77.6647 44.4577 77.6061 40.556 76.86C40.6925 77.6608 41.0043 78.4422 41.4681 79.1532C44.4811 80.2939 48.2113 80.3916 51.1737 79.1337Z" fill="#1E1E1E"/>
<path d="M47.8332 71.5C49.2637 71.9532 50.6981 72.1798 52.0546 71.7188C53.6137 71.1875 54.4829 69.8436 54.3582 68.2184C54.2607 66.9878 53.7228 65.9017 52.7601 65.1048L51.2049 63.8117C50.8229 63.4952 50.741 62.6475 50.6709 62.1201L49.6925 54.4396C49.6146 53.8223 49.1897 53.4043 48.6206 53.3887C48.1568 53.3769 47.4318 53.8106 47.4785 54.4669C47.7007 57.5102 48.0671 60.5183 48.6362 63.5148C48.8584 64.6868 49.5015 65.558 50.476 66.1635C51.7077 66.9292 52.4872 68.152 51.8753 69.0427C51.2243 69.9842 49.6613 69.6365 48.4374 69.3318C47.7865 69.1677 47.1433 69.4256 46.9679 70.0116C46.773 70.664 47.1316 71.2734 47.8371 71.5H47.8332Z" fill="#1E1E1E"/>
<path d="M36.627 55.6077C37.5547 55.4983 38.3772 55.9124 38.9384 56.6351C41.1173 59.4167 40.291 65.1751 37.3403 65.2845C34.3897 65.3939 32.8306 60.2722 34.6119 57.0062C35.0679 56.1663 35.8787 55.6975 36.6231 55.6116L36.627 55.6077ZM35.8942 60.2566C36.1125 60.28 36.5296 60.0886 36.6582 59.8894C37.4105 58.7447 36.8882 57.3188 36.1086 57.2602C35.3291 57.2016 34.6041 58.5455 35.177 59.7409C35.2901 59.9792 35.6838 60.2332 35.8942 60.2566Z" fill="#1E1E1E"/>
<path d="M54.2958 55.717C55.1923 54.6974 56.6111 54.67 57.5973 55.5686C60.0724 57.8227 59.5618 64.1125 56.541 64.3899C54.2919 64.593 53.1226 61.7724 53.1382 59.2643C53.146 57.9634 53.45 56.6781 54.2958 55.717ZM55.8978 59.0377C56.2837 58.3579 56.2525 57.4868 55.7926 56.8851C55.5002 56.5023 54.9974 56.471 54.6622 56.8343C54.023 57.5336 53.9372 58.8893 54.8844 59.4323C55.2391 59.6354 55.738 59.3151 55.8939 59.0416L55.8978 59.0377Z" fill="#1E1E1E"/>
<path d="M30.449 51.7869C33.3139 49.5914 36.8648 48.9429 40.3923 49.7398C40.8795 49.8492 41.4564 49.5875 41.6864 49.2163C41.9164 48.8452 41.9086 48.2748 41.6201 47.8412C41.3317 47.4075 40.8016 47.1106 40.252 46.9622C36.8375 46.0207 33.0839 46.7981 30.3866 49.0874C29.4667 49.8687 28.7573 50.904 29.3927 51.6463C29.5798 51.8651 30.1956 51.9823 30.449 51.7869Z" fill="#1E1E1E"/>
<path d="M53.3331 49.4624C55.6795 48.5952 58.0884 48.8178 60.1581 50.15C60.4622 50.3454 60.965 50.3258 61.2144 50.1578C61.5263 49.943 61.6978 49.4195 61.5185 49.021C61.3197 48.5834 60.965 48.1693 60.5713 47.8529C58.4353 46.1105 55.4496 45.7159 52.9823 46.9036C52.2456 47.2552 51.8051 47.8841 51.9376 48.6889C52.0351 49.2905 52.6509 49.7203 53.337 49.4664L53.3331 49.4624Z" fill="#1E1E1E"/>
<path d="M11.8097 65.9682C11.8369 67.8824 12.675 69.6717 13.9184 69.1716C14.3237 69.0076 14.5498 68.4489 14.3705 67.9684C14.0977 67.2417 13.8989 66.5073 13.8911 65.7181C13.8794 64.0539 13.1505 61.9716 11.7551 61.6435C11.2523 61.5263 10.7572 61.7958 10.5624 62.1982C10.348 62.6436 10.4961 63.1436 10.8859 63.5226C11.5173 64.1398 11.798 65.054 11.8097 65.9643V65.9682Z" fill="#1E1E1E"/>
</svg>
