<svg width="145" height="120" viewBox="0 0 145 120" fill="none" xmlns="http://www.w3.org/2000/svg">
<path d="M144.48 80.6729V80.7354C144.495 84.896 143.193 88.8496 140.706 92.1663C140.695 92.1781 140.683 92.1937 140.671 92.2093C138.348 95.2057 135.312 97.077 131.968 97.6162C130.498 102.464 127.789 107.066 124.172 110.801C120.227 114.872 115.055 117.681 109.22 118.923C106.76 119.447 104.289 119.712 101.88 119.712C100.235 119.712 98.5633 119.591 96.9106 119.349C88.3549 118.091 82.1457 114.083 78.4506 107.434C75.2894 101.742 73.8044 94.5885 73.9135 85.5601C73.9135 85.5328 73.9135 85.5055 73.9174 85.4742C74.046 81.923 74.3579 78.5672 74.7827 74.6214L75.27 70.1131C75.2076 70.078 75.1491 70.0389 75.0907 70.0038C75.0127 72.2345 74.4124 74.4456 73.2743 76.4771L71.2318 80.1181C70.1677 82.0129 70.234 84.4272 71.376 85.5015C72.5025 86.5564 73.0014 88.0018 72.7091 89.3692C72.3271 91.1467 70.7329 92.389 68.8347 92.389C66.9364 92.389 64.7848 91.1701 63.2959 89.3379C62.1187 91.0529 60.8091 92.6156 59.3747 94.022C55.1377 98.1709 49.8172 100.363 43.9822 100.363C41.2966 100.363 38.572 99.8898 35.8864 98.9601C29.7201 96.8309 24.041 92.3734 19.7105 86.4509C19.5078 86.7204 19.2857 86.9822 19.0518 87.2322C17.6018 88.7753 15.6685 89.627 13.6143 89.627C11.6927 89.627 9.85295 88.8691 8.43804 87.494C8.40686 87.4627 8.37568 87.4275 8.3406 87.3963C5.56925 84.4819 4.68445 79.9033 5.86938 75.5669C4.62598 74.348 3.57747 72.9025 2.73554 71.2383C1.18811 68.1637 0.548868 64.9876 0.841204 61.8036C0.841204 61.788 0.845102 61.7763 0.845102 61.7607C1.0205 60.0534 1.44926 58.5338 2.14697 57.1664C1.30504 54.2247 0.891876 51.2791 0.895774 48.2123V48.1732C0.942548 43.9423 1.95988 39.8169 3.86981 36.0391C2.17815 35.0038 0.852898 33.4177 0.186372 31.4761C0.0109702 30.9643 -0.0397016 30.4018 0.0304591 29.8665C0.221452 28.3742 0.926956 27.5343 1.62077 27.0616C0.852898 25.0223 0.587847 22.6353 0.899672 20.0217C1.70652 13.2749 5.46401 7.20391 11.2172 3.36365C13.6416 1.74238 16.0193 0.742269 18.4788 0.312534C19.4065 0.148454 20.3381 0.0664135 21.2541 0.0664135C22.8989 0.0664135 24.5009 0.332068 26.0094 0.851656C26.0834 0.800869 26.1614 0.753989 26.2394 0.711015L26.6993 0.457081C27.1553 0.203147 27.6582 0.0546935 28.1766 0.0195334C28.391 0.00781336 28.6092 0 28.8275 0C31.5638 0 34.2104 1.15638 36.2762 3.25426C36.2801 3.26208 36.2879 3.26598 36.2957 3.2738C39.4374 6.50852 40.4703 11.1379 39.3477 15.3025C43.2104 15.4509 46.89 16.1971 50.3084 17.5254C56.4864 19.9201 61.1092 23.8893 63.4323 28.761C67.0183 31.8082 69.4466 36.1329 70.3509 40.856C72.6155 39.016 75.422 37.6018 78.7546 36.6407C78.7663 36.6368 78.778 36.6329 78.7897 36.6329C81.8066 35.7969 84.7494 35.3945 87.7897 35.3945C90.105 35.3945 92.5334 35.6328 95.1761 36.1211C99.8652 33.2849 105.279 31.7925 110.927 31.7925C111.114 31.7925 111.301 31.7964 111.488 31.7964C112.054 31.0659 112.818 30.4526 113.749 30.0189C113.835 29.9798 113.921 29.9447 114.01 29.9095C115.121 29.4993 116.294 29.2884 117.499 29.2884C119.857 29.2884 122.102 30.097 123.821 31.566C125.174 32.7223 125.922 34.3163 126.012 35.9492C129.391 38.0276 132.275 40.4341 134.606 43.1336C137.775 46.7981 139.942 51.0134 141.057 55.6623C142.484 61.6357 141.658 66.8784 140.328 71.3867C142.846 73.4416 144.398 76.7936 144.48 80.6729Z" fill="#F9FBFC"/>
<path d="M97.4173 115.868C90.6274 114.872 84.9132 111.837 81.5143 105.723C78.1154 99.6088 77.3358 92.483 77.4216 85.6073C77.5541 82.0131 77.8854 78.5635 78.2713 75.0006L79.008 68.1561C74.3384 65.8199 69.7819 61.9484 68.1876 56.8502C67.1703 53.6272 67.5679 50.2714 69.2829 47.3726C71.5865 43.4737 75.4298 41.2586 79.7252 40.0202C85.2718 38.4888 90.2415 38.649 95.8777 39.8444C101.14 36.2815 107.552 34.797 113.862 35.4611C113.749 34.4102 114.303 33.6406 115.234 33.207C117.323 32.4296 119.838 32.7812 121.549 34.2423C122.613 35.1525 122.851 36.598 122.055 37.7231C129.722 41.8407 135.6 47.9195 137.647 56.483C139.042 62.3235 138.052 67.4803 136.107 73.0238C139.389 74.0552 140.901 77.454 140.972 80.7512C140.983 84.1149 139.915 87.3731 137.9 90.053C135.776 92.7916 132.735 94.5067 129.208 94.2293C128.136 99.4799 125.361 104.523 121.65 108.352C117.939 112.18 113.496 114.419 108.487 115.486C104.788 116.275 101.148 116.419 97.4135 115.868H97.4173ZM119.272 53.5412C120.516 48.9978 121.147 44.5207 120.555 39.8679C113.776 36.6292 105.56 37.227 98.9375 40.7039C105.595 42.8174 111.617 46.2357 116.704 50.9316L119.272 53.5373V53.5412ZM128.845 67.2068C130.514 68.8281 132.123 70.297 134.061 71.6565C135.023 68.9023 135.717 66.1637 135.877 63.2415C136.173 57.8737 134.489 52.7013 131.258 48.4118C129.036 45.4622 126.195 43.1026 123.057 41.1844C123.396 46.2045 122.519 50.9589 121.108 55.7641C123.088 58.3582 124.706 61.1632 125.926 64.1948L128.842 67.2029L128.845 67.2068ZM87.3181 53.8968C92.6191 51.2597 98.4737 50.9277 104.211 51.9864C110.327 53.1935 115.897 55.811 120.886 59.7216C119.12 56.7056 116.809 54.2796 114.275 52.002C111.231 49.3611 107.906 47.2515 104.278 45.4935C100.387 43.5792 96.3338 42.29 92.0423 41.7001C86.6321 40.9578 80.4852 41.5438 75.765 44.3332C74.1045 45.3138 72.7091 46.5327 71.645 48.1227C69.9962 50.5839 69.5753 53.5608 70.5263 56.3697C71.9023 60.4443 75.5311 63.4994 79.2185 65.5269C79.959 60.1591 82.4848 56.4127 87.322 53.8968H87.3181ZM127.154 92.9831C127.317 92.1744 128.062 91.6704 128.873 91.7759C135.098 92.5846 138.968 85.9784 138.633 80.2121C138.57 79.1417 138.259 78.1768 137.744 77.2938C136.462 75.0788 133.761 74.5045 131.597 75.8523C130.284 76.6688 129.403 77.9423 128.908 79.4386C128.171 81.6576 126.861 85.6502 124.519 84.7751C123.388 84.3532 123.311 82.9195 123.33 81.5912C123.353 79.9816 123.268 78.4541 123.045 76.8719C122.702 75.5085 122.246 74.274 121.588 73.0238C119.869 69.7735 119.436 66.0504 120.278 62.4485C113.309 56.4791 103.989 52.9982 94.8409 54.1507C90.1557 54.7562 85.0847 56.9166 82.9058 61.2374C82.0249 62.9837 81.6546 64.8276 81.4363 66.8161C83.545 65.0034 87.0297 64.0893 89.688 64.6831C90.2532 64.8081 90.8534 65.0737 91.1302 65.5386C91.4069 66.0035 91.4147 66.5622 91.1185 67.0036C90.9197 67.3006 90.3896 67.5701 89.9102 67.4764C87.3259 66.9802 84.7689 67.5115 82.594 68.9726C82.1535 69.2695 81.6546 69.2891 81.1869 68.9375L80.1734 79.0636C79.5264 85.5369 79.4095 92.1744 81.105 98.4446C81.7754 100.925 82.6563 103.226 84.0479 105.383C85.8369 108.153 88.2809 110.329 91.3485 111.618C96.7469 113.888 102.738 114.306 108.448 113.024C118.407 110.794 125.17 102.797 127.162 92.9831H127.154Z" fill="#1E1E1E"/>
<path d="M96.7664 102.84C93.1765 101.957 90.5611 98.4328 90.0232 94.7957C89.9413 94.2488 90.1323 93.6706 90.4403 93.319C90.7989 92.9127 91.3796 92.7564 91.9838 92.8189C95.9323 93.2252 99.8067 93.0221 103.673 92.1665L106.519 91.5375C107.057 91.4203 107.626 91.5844 108.023 91.936C108.401 92.2681 108.569 92.815 108.569 93.4166C108.561 95.2332 107.953 96.8584 107.037 98.4094C104.936 101.976 100.805 103.832 96.7625 102.836L96.7664 102.84ZM105.529 96.456C105.946 95.6708 106.152 94.8973 106.265 93.9558L101.697 94.909C98.5906 95.4208 95.5737 95.452 92.3853 95.1317C92.5568 95.8896 92.8023 96.581 93.2194 97.2374C96.9496 98.632 101.861 98.0734 105.525 96.4599L105.529 96.456Z" fill="#1E1E1E"/>
<path d="M96.9379 89.1664C95.753 89.4711 94.6538 89.8032 93.465 89.7368C92.1553 89.6625 90.8885 89.0805 90.2337 87.928C89.5477 86.7091 89.7075 85.2285 90.3974 84.033C91.442 82.2242 93.1025 81.9508 93.3831 80.478C93.6794 78.9114 93.8119 77.3565 93.9405 75.747L94.3264 71.0004C94.381 70.3245 95.1098 69.9612 95.6244 70.0471C96.3494 70.1682 96.5793 70.7816 96.5209 71.4652L95.8348 79.8177C95.6438 82.1695 94.7435 82.8884 93.2662 84.1502C92.3853 84.9042 91.8201 85.92 92.3268 86.7911C92.9388 87.842 95.028 87.3811 96.4273 86.9669C97.0744 86.7716 97.7604 87.1232 97.9124 87.6467C98.1385 88.4241 97.698 88.9711 96.934 89.1664H96.9379Z" fill="#1E1E1E"/>
<path d="M109.543 74.0981C111.578 76.7038 110.682 82.5834 107.482 82.7396C106.546 82.7865 105.692 82.2669 105.178 81.4348C103.287 78.3954 104.535 72.9808 107.493 73.0276C108.277 73.0394 109.025 73.4339 109.543 74.102V74.0981ZM109.185 77.2195C109.59 76.4851 109.489 75.6803 109.017 75.063C108.881 74.8794 108.507 74.6958 108.312 74.7114C108.14 74.7231 107.801 74.9185 107.704 75.0708C107.275 75.7584 107.283 76.614 107.747 77.2625C107.902 77.4813 108.288 77.6883 108.511 77.6727C108.702 77.661 109.072 77.4305 109.185 77.2195Z" fill="#1E1E1E"/>
<path d="M88.7993 81.9C87.704 82.5759 86.4489 82.1266 85.798 81.0992C84.5546 79.1458 84.652 75.7861 86.0474 74.0515C86.5541 73.4225 87.3025 73.0514 88.0782 73.1413C90.5806 73.4343 91.2627 77.4581 90.1635 80.2123C89.8907 80.8921 89.4463 81.5015 88.8032 81.9H88.7993ZM89.4268 77.0362C89.8283 76.3057 89.6373 75.4618 89.1306 74.9188C88.7915 74.5555 88.238 74.6688 87.9885 75.0829C87.6105 75.7158 87.6027 76.5205 88.0509 77.1495C88.1873 77.3409 88.5927 77.5167 88.811 77.4972C88.9903 77.4816 89.306 77.2628 89.4268 77.0362Z" fill="#1E1E1E"/>
<path d="M112.12 68.6836C109.119 66.9178 105.747 66.4373 102.407 67.121C101.798 67.246 101.159 66.8045 100.98 66.4139C100.703 65.82 100.847 65.1129 101.397 64.7301C101.845 64.4176 102.426 64.2378 103.003 64.1441C109.372 63.1049 115.262 66.8084 113.449 68.6094C113.126 68.9298 112.592 68.9649 112.12 68.6876V68.6836Z" fill="#1E1E1E"/>
<path d="M133.484 84.111C133.554 86.0565 132.848 87.92 131.578 87.4512C131.118 87.2832 130.88 86.7323 131.059 86.1932C131.324 85.4119 131.469 84.611 131.43 83.7672C131.348 81.9662 132.213 79.8292 133.679 79.423C134.217 79.2745 134.723 79.587 134.887 79.966C135.133 80.5403 134.887 80.9622 134.454 81.345C133.69 82.017 133.449 83.0952 133.484 84.111Z" fill="#1E1E1E"/>
<path d="M112.213 95.9406C112.802 95.546 112.911 98.1908 112.42 98.0072C111.851 97.7963 111.738 96.257 112.213 95.9406Z" fill="#1E1E1E"/>
<path d="M123.751 96.0811C123.392 96.8312 122.706 94.3231 123.443 94.1083C123.806 94.0028 124.145 95.2646 123.751 96.0811Z" fill="#1E1E1E"/>
<path d="M117.53 95.069C117.335 95.1511 117.023 95.1237 116.98 95.0026C116.704 94.2252 116.708 93.3344 117.14 93.186C117.526 93.0532 117.729 94.0298 117.534 95.069H117.53Z" fill="#1E1E1E"/>
<path d="M82.1769 92.3502C82.516 92.2564 82.8473 93.655 82.2237 94.4403C81.5649 94.1277 81.6507 92.4947 82.1769 92.3502Z" fill="#1E1E1E"/>
<path d="M113.492 106.793C113.858 106.363 114.634 108.254 113.699 108.739C113.332 108.25 113.028 107.336 113.492 106.793Z" fill="#1E1E1E"/>
<path d="M107.392 107.555C107.992 107.469 108.031 109.688 107.497 109.551C107.014 109.426 106.838 107.637 107.392 107.555Z" fill="#1E1E1E"/>
<path d="M86.2852 96.632C86.7217 96.8 86.7646 98.3509 86.293 98.5931C85.7434 98.8705 85.6226 96.3742 86.2852 96.632Z" fill="#1E1E1E"/>
<path d="M119.978 98.2373C120.457 98.4913 120.625 99.8508 120.021 100.316C119.292 99.4797 119.635 98.0537 119.978 98.2373Z" fill="#1E1E1E"/>
<path d="M121.132 89.2599C121.65 89.2755 121.759 90.9476 121.346 91.2562C120.855 91.6234 120.457 89.2404 121.132 89.2599Z" fill="#1E1E1E"/>
<path d="M84.5818 101.613C84.9326 101.43 85.4199 103.039 84.6325 103.672C84.0673 103.207 84.1102 101.859 84.5818 101.613Z" fill="#1E1E1E"/>
<path d="M115.694 101.031C116.103 101.898 115.835 102.859 115.515 102.789C115.152 102.707 115.012 101.894 115.133 101.14C115.16 100.96 115.608 100.859 115.694 101.035V101.031Z" fill="#1E1E1E"/>
<path d="M88.9357 102.296C89.3684 102.445 89.5789 103.683 89.0916 104.301C88.2809 103.777 88.5693 102.171 88.9357 102.296Z" fill="#1E1E1E"/>
<path d="M110.467 102.598C110.915 102.781 111.083 104.09 110.533 104.516C109.746 103.816 110.109 102.449 110.467 102.598Z" fill="#1E1E1E"/>
<path d="M94.7162 107.508C95.18 108.047 95.2541 108.926 94.7941 109.501C94.5174 109.844 93.8548 108.106 94.7162 107.508Z" fill="#1E1E1E"/>
<path d="M103.845 110.415C104.379 110.254 104.613 112.204 104.055 112.313C103.556 112.415 103.397 110.547 103.845 110.415Z" fill="#1E1E1E"/>
<path d="M118.243 103.75C118.859 104.281 118.867 105.168 118.395 105.778C117.85 105.36 117.682 104.32 118.243 103.75Z" fill="#1E1E1E"/>
<path d="M99.0077 110.192C99.5261 110.235 99.6859 111.801 99.0388 112.067C98.6296 111.59 98.4152 110.637 99.0077 110.192Z" fill="#1E1E1E"/>
<path d="M87.4 107.977C86.7295 107.586 86.6945 106.504 87.2752 105.98C87.7001 106.508 87.8326 107.297 87.4 107.977Z" fill="#1E1E1E"/>
<path d="M82.8668 97.7178C83.2488 97.5889 83.4593 99.304 82.8512 99.5344C82.4575 99.6829 82.2354 97.9327 82.8668 97.7178Z" fill="#1E1E1E"/>
<path d="M91.1263 108.516C91.4771 108.84 91.6174 109.926 91.1731 110.419C90.2376 109.903 90.8145 108.227 91.1263 108.516Z" fill="#1E1E1E"/>
<path d="M125.458 91.0764C124.893 90.592 124.889 89.6817 125.345 89.123C125.906 89.5411 125.988 90.463 125.458 91.0764Z" fill="#1E1E1E"/>
<path d="M37.0285 95.6394C28.3598 92.643 21.6711 84.9039 18.1319 76.6061C18.6503 79.5712 18.5412 82.6458 16.4948 84.8218C14.9474 86.4704 12.5152 86.5564 10.8781 84.9664C8.31331 82.2747 8.38737 77.739 10.04 74.4301C8.20417 73.2229 6.84773 71.5899 5.86548 69.6483C4.68055 67.2926 4.09198 64.7571 4.32975 62.1162C4.50125 60.4559 4.98068 58.9674 5.96683 57.6313C4.91832 54.5568 4.39211 51.4744 4.39601 48.2084C4.45448 43.0321 6.16951 38.1448 9.2215 34.0077L9.30336 33.7615C9.31505 33.7264 9.2332 33.7615 9.13965 33.785C6.66843 34.0506 4.30246 32.6794 3.49951 30.3276C3.519 30.1908 3.54629 29.9525 3.63204 29.9369L3.94776 29.8744C5.69008 31.5347 8.3289 31.8043 10.4103 30.4526C5.49519 29.4251 3.81523 25.1473 4.37652 20.4359C5.07033 14.6188 8.30162 9.52842 13.1544 6.28588C14.9864 5.06309 16.9002 4.15283 19.0791 3.76998C21.8699 3.27774 24.6724 3.71138 27.0579 5.23108C29.4044 6.72343 30.7413 9.10259 31.2675 11.9115C32.4447 8.95023 30.944 5.54361 28.0713 4.22706C27.9856 4.12158 27.8375 3.83639 27.9349 3.7817L28.3948 3.52776C30.4529 3.39494 32.3161 4.24269 33.7699 5.72332C37.0012 9.05181 37.1104 14.4235 34.0701 17.9317L31.5638 17.959C25.9041 18.5099 20.5914 21.1 16.5494 25.0379C15.8322 25.9873 14.9786 26.6709 14.7993 27.9679C19.7651 23.0221 26.1224 20.0218 33.0449 19.1115C38.4629 18.4005 43.9354 18.8263 49.0338 20.8031C53.9255 22.7017 58.5367 26.0537 60.5635 30.9644C65.1902 34.5233 67.6263 40.5553 67.1859 46.3567L66.5467 50.4704C66.3284 51.8807 66.0049 53.2324 65.9971 54.6779C65.9815 56.8539 66.7065 58.8385 67.8875 60.6395L69.9962 63.8508C72.0114 67.2496 72.1478 71.3008 70.2106 74.7543L68.1681 78.3953C66.4609 81.4347 66.4336 85.6852 68.975 88.0683C69.1387 88.2206 69.3063 88.4707 69.2712 88.6269C69.1309 89.2872 66.9053 88.6269 65.6229 86.5759C64.1261 84.185 63.9429 81.2511 64.8628 78.5711C65.3734 77.0788 66.1257 75.7779 66.8663 74.391C68.8503 70.6875 68.6359 66.855 65.7125 63.6554C66.6909 69.0427 66.1959 74.4144 64.3444 79.5361C62.7229 84.0131 60.3569 88.1347 56.9152 91.5061C51.4504 96.8583 44.1108 98.0889 37.0207 95.6355L37.0285 95.6394ZM26.329 13.6343C27.1242 10.6301 24.6413 7.72744 21.6984 7.27427C20.6928 7.12191 19.6715 7.19613 18.8023 7.84464C22.6417 7.7587 25.0544 10.1301 26.329 13.6343ZM13.5559 72.1525C13.7508 71.8868 14.2497 71.7188 14.6356 71.7774C15.536 71.9102 16.1284 72.5783 16.6001 73.344C16.8261 73.3948 17.1886 73.3674 17.4927 73.2776C18.1787 73.0744 19.2389 73.1526 19.5429 73.9613C21.2852 78.579 23.7915 82.7982 27.2333 86.3532C31.8483 91.1194 37.9601 94.6549 44.7345 94.3502C49.8016 94.1236 53.6722 91.9203 56.8996 88.0722C61.0274 83.1459 63.4674 77.0124 63.865 70.5781C63.9819 68.7029 63.9234 66.9527 63.6194 65.1361L62.68 59.5144C62.3877 57.7681 62.1694 56.0921 62.2747 54.3107C62.4306 51.6463 62.3331 49.0601 61.7056 46.47C59.706 38.2386 52.6432 32.82 44.2317 32.7653C42.0333 32.7497 39.9597 32.109 38.1979 30.8315C37.9835 34.9414 35.5512 38.6058 32.3044 40.985L28.7496 43.5048C26.216 45.3019 24.9258 48.2123 25.0038 51.3299C25.2805 55.2873 24.6062 58.5689 21.2813 60.7801C20.1666 63.2374 20.0652 65.8822 21.3593 68.2067L21.2813 68.699C21.2424 68.9529 20.2913 68.9295 19.4883 67.9333C17.4927 65.4603 17.4108 63.0968 16.1791 60.8309C15.4229 59.4401 14.3081 58.3111 12.8543 57.729C10.9911 56.9828 9.00322 57.5376 7.8066 59.1549C5.37826 62.4444 6.95298 68.0426 9.68534 71.0313C10.7455 72.1056 11.8954 72.9924 13.4623 73.3049C13.3493 72.8947 13.3298 72.4728 13.5559 72.1603V72.1525ZM22.018 51.2205C21.5698 54.0763 20.2952 56.389 18.3463 58.4869C21.6399 57.9087 22.7859 54.2638 22.018 51.2205ZM15.9179 81.0284C16.2921 79.2861 16.105 77.4851 15.4268 75.8482C14.2497 75.9146 13.2246 75.7818 12.1721 75.4184C11.1275 77.364 10.9054 79.6181 11.5329 81.716C11.8135 82.4348 12.176 83.1185 12.8231 83.5287C13.4701 83.9389 14.3315 83.7358 14.885 83.1459C15.4385 82.5559 15.7153 81.798 15.9179 81.0245V81.0284Z" fill="#1E1E1E"/>
<path d="M43.0974 83.7046C40.482 82.2162 38.6773 79.5362 38.2407 76.5398C38.1511 75.9342 38.3343 75.3404 38.7007 75.0005C39.0671 74.6607 39.6089 74.5278 40.1584 74.6255C44.2901 75.3639 48.3711 75.4381 52.5223 74.8208C52.9862 74.7505 53.5708 75.0005 53.8203 75.2818C54.0581 75.5475 54.2374 76.0983 54.1828 76.5163C53.8943 78.7392 52.99 80.759 51.4543 82.431C49.2481 84.8337 45.9038 85.2946 43.1013 83.7007L43.0974 83.7046ZM51.1737 79.1338L51.9182 77.0633C48.1529 77.6649 44.4577 77.6063 40.556 76.8601C40.6924 77.661 41.0043 78.4423 41.4681 79.1533C44.4811 80.2941 48.2113 80.3918 51.1737 79.1338Z" fill="#1E1E1E"/>
<path d="M47.8333 71.5003C49.2638 71.9534 50.6981 72.18 52.0546 71.719C53.6137 71.1877 54.4829 69.8438 54.3582 68.2187C54.2608 66.988 53.7228 65.902 52.7601 65.105L51.2049 63.8119C50.8229 63.4955 50.741 62.6477 50.6709 62.1203L49.6925 54.4398C49.6146 53.8225 49.1897 53.4045 48.6206 53.3889C48.1568 53.3772 47.4318 53.8108 47.4786 54.4671C47.7007 57.5104 48.0671 60.5186 48.6362 63.515C48.8584 64.687 49.5015 65.5582 50.476 66.1637C51.7077 66.9294 52.4872 68.1522 51.8753 69.043C51.2243 69.9845 49.6613 69.6368 48.4374 69.3321C47.7865 69.168 47.1433 69.4258 46.9679 70.0118C46.773 70.6642 47.1316 71.2737 47.8371 71.5003H47.8333Z" fill="#1E1E1E"/>
<path d="M36.627 55.6077C37.5547 55.4983 38.3772 55.9125 38.9384 56.6352C41.1173 59.4167 40.291 65.1752 37.3403 65.2846C34.3897 65.394 32.8306 60.2723 34.6119 57.0063C35.0679 56.1664 35.8787 55.6976 36.6231 55.6116L36.627 55.6077ZM35.8942 60.2567C36.1125 60.2801 36.5296 60.0887 36.6582 59.8894C37.4105 58.7448 36.8882 57.3189 36.1086 57.2603C35.3291 57.2017 34.6041 58.5456 35.177 59.741C35.2901 59.9793 35.6838 60.2332 35.8942 60.2567Z" fill="#1E1E1E"/>
<path d="M54.2958 55.7169C55.1923 54.6973 56.6111 54.6699 57.5973 55.5685C60.0724 57.8226 59.5618 64.1124 56.541 64.3898C54.2919 64.5929 53.1226 61.7723 53.1382 59.2642C53.146 57.9633 53.45 56.678 54.2958 55.7169ZM55.8978 59.0376C56.2837 58.3578 56.2525 57.4867 55.7926 56.885C55.5002 56.5022 54.9974 56.4709 54.6622 56.8342C54.023 57.5335 53.9372 58.8892 54.8844 59.4322C55.2391 59.6353 55.738 59.315 55.8939 59.0415L55.8978 59.0376Z" fill="#1E1E1E"/>
<path d="M30.449 51.7872C33.3139 49.5916 36.8648 48.9431 40.3923 49.7401C40.8795 49.8495 41.4564 49.5877 41.6864 49.2166C41.9164 48.8454 41.9086 48.2751 41.6201 47.8414C41.3317 47.4078 40.8016 47.1109 40.252 46.9624C36.8375 46.0209 33.0839 46.7983 30.3866 49.0877C29.4667 49.869 28.7573 50.9043 29.3927 51.6465C29.5798 51.8653 30.1956 51.9825 30.449 51.7872Z" fill="#1E1E1E"/>
<path d="M53.3331 49.4626C55.6796 48.5953 58.0884 48.818 60.1581 50.1501C60.4622 50.3455 60.965 50.3259 61.2144 50.158C61.5263 49.9431 61.6978 49.4196 61.5185 49.0211C61.3197 48.5836 60.965 48.1695 60.5713 47.853C58.4353 46.1106 55.4496 45.7161 52.9823 46.9037C52.2456 47.2553 51.8051 47.8843 51.9377 48.6891C52.0351 49.2907 52.6509 49.7204 53.337 49.4665L53.3331 49.4626Z" fill="#1E1E1E"/>
<path d="M11.8097 65.968C11.8369 67.8823 12.675 69.6715 13.9184 69.1715C14.3237 69.0074 14.5498 68.4487 14.3705 67.9682C14.0977 67.2416 13.8989 66.5071 13.8911 65.718C13.8794 64.0537 13.1505 61.9715 11.7551 61.6433C11.2523 61.5261 10.7572 61.7957 10.5624 62.1981C10.348 62.6434 10.4961 63.1435 10.8859 63.5224C11.5173 64.1397 11.798 65.0538 11.8097 65.9641V65.968Z" fill="#1E1E1E"/>
</svg>
